<?xml version="1.0" standalone="no"?><!DOCTYPE svg PUBLIC "-//W3C//DTD SVG 1.1//EN" "http://www.w3.org/Graphics/SVG/1.1/DTD/svg11.dtd"><svg t="1613192800761" class="icon" viewBox="0 0 1024 1024" version="1.1" xmlns="http://www.w3.org/2000/svg" p-id="4279" xmlns:xlink="http://www.w3.org/1999/xlink" width="200" height="200"><defs><style type="text/css"></style></defs><path d="M512 439.466667l-392.533333-213.333334C132.266667 213.333333 149.333333 202.666667 168.533333 202.666667H853.333333c19.2 0 38.4 8.533333 51.2 23.466666L512 439.466667z m-8.533333 70.4s0 2.133333 0 0c4.266667 2.133333 6.4 2.133333 8.533333 2.133333h10.666667c2.133333 0 6.4-2.133333 8.533333-2.133333l392.533333-213.333334v456.533334c0 38.4-29.866667 68.266667-68.266666 68.266666H168.533333c-38.4 0-68.266667-29.866667-68.266666-68.266666V294.4l392.533333 213.333333c4.266667 2.133333 6.4 2.133333 10.666667 2.133334z" fill="#30CA9B" p-id="4280"></path></svg>